# xmcd
#
# Track frame offsets:
#	150
#	17532
#	37900
#	53525
#	75345
#	100057
#	123817
#	147935
#	165697
#	190895
#
# Disc length: 2800 seconds
#
# Revision: 3
# Processed by: cddbd v1.5.2PL0 Copyright (c) Steve Scherf et al.
# Submitted via: EZCDAudioConverter 8.0.2.1
#
DISCID=6b0aee0a
DTITLE=Phi Nhung - Đôi Ngả Chia Ly
DYEAR=1995
DGENRE=country
TTITLE0=Lối về đát mẹ
TTITLE1=Đêm bơ vơ
TTITLE2=Chuyện buồn ngày xuân
TTITLE3=Chuyến đó vĩ tuyến
TTITLE4=Hành trang giã từ
TTITLE5=Đôi Ngả Chia Ly
TTITLE6=Ngày xưa lên năm lên ba
TTITLE7=Một thuở yêu anh
TTITLE8=CHo vừa lòng em
TTITLE9=Đổi thay
EXTD=
EXTT0=
EXTT1=
EXTT2=
EXTT3=
EXTT4=
EXTT5=
EXTT6=
EXTT7=
EXTT8=
EXTT9=
PLAYORDER=
